<?xml version="1.0" encoding="UTF-8"?>
<svg xmlns="http://www.w3.org/2000/svg" width="292" height="54" viewBox="0 0 292 54" fill="none">
  <path d="M0 53.6307V0H35.8026V9.93036H10.8279V20.9352H34.2605V30.9411H10.8279V43.6415H35.7942V53.639H0V53.6307Z" fill="#2D3A47"></path>
  <path d="M42.817 0H62.1011C67.5318 0 71.7725 1.19198 74.8147 3.57594C77.8653 5.95989 79.3822 9.284 79.3822 13.5399C79.3822 15.9574 78.9129 18.1063 77.9575 20.0034C77.0105 21.9005 75.636 23.4115 73.8509 24.5447C79.4828 26.8531 82.2987 31.2349 82.2987 37.7068C82.2987 42.6846 80.7399 46.5795 77.6139 49.4C74.4879 52.2204 70.1885 53.6307 64.7075 53.6307H42.8086V0H42.817ZM68.5543 15.2355C68.5543 13.4895 67.9928 12.1716 66.8614 11.2734C65.73 10.3753 64.146 9.93036 62.0927 9.93036H53.6449V20.7001H62.0927C66.4004 20.7001 68.5459 18.8786 68.5459 15.2355H68.5543ZM69.5516 41.8955C70.8338 40.7371 71.4708 39.1338 71.4708 37.0857C71.4708 34.7772 70.75 33.1488 69.3169 32.2002C67.8838 31.2517 66.0652 30.7732 63.8611 30.7732H53.6449V43.6247H63.8611C66.3669 43.6247 68.2693 43.0455 69.5432 41.8871L69.5516 41.8955Z" fill="#2D3A47"></path>
  <path d="M87.4023 10.8453V0H98.2303L87.4023 10.8453Z" fill="#B0D236"></path>
  <path d="M98.2381 5.42261V42.7853L87.4102 53.6306V16.2679L98.2381 5.42261Z" fill="#2D3A47"></path>
  <path d="M140.133 12.2896H144.348C145.538 12.2896 146.46 12.5498 147.131 13.0702C147.793 13.5907 148.128 14.321 148.128 15.2527C148.128 15.7815 148.027 16.2516 147.818 16.6713C147.608 17.0826 147.307 17.4184 146.921 17.6618C148.153 18.1655 148.773 19.1308 148.773 20.5411C148.773 21.6323 148.43 22.4801 147.751 23.1013C147.064 23.7225 146.125 24.0247 144.927 24.0247H140.141V12.2896H140.133ZM145.765 15.6221C145.765 15.2359 145.639 14.9505 145.396 14.7575C145.153 14.556 144.801 14.4637 144.357 14.4637H142.505V16.8224H144.357C145.295 16.8224 145.773 16.4195 145.773 15.6304L145.765 15.6221ZM145.983 21.456C146.259 21.2042 146.402 20.8517 146.402 20.4068C146.402 19.9031 146.242 19.5422 145.932 19.3407C145.622 19.1308 145.22 19.0301 144.742 19.0301H142.505V21.8422H144.742C145.287 21.8422 145.706 21.7163 145.983 21.4644V21.456Z" fill="#2D3A47"></path>
  <path d="M152.039 19.7855V12.2979H154.411V19.5169C154.411 20.1464 154.469 20.6417 154.604 21.011C154.729 21.372 154.956 21.6406 155.266 21.8169C155.576 21.9932 156.02 22.0771 156.59 22.0771C157.42 22.0771 157.989 21.884 158.316 21.4895C158.635 21.095 158.794 20.4486 158.794 19.5337V12.2979H161.166V19.7016C161.166 21.2377 160.78 22.3877 160.018 23.16C159.255 23.9322 158.107 24.31 156.598 24.31C153.564 24.31 152.047 22.799 152.047 19.7855H152.039Z" fill="#2D3A47"></path>
  <path d="M165.289 24.0247V12.2896H167.661V24.0247H165.289Z" fill="#2D3A47"></path>
  <path d="M172.016 24.0247V12.2896H174.387V21.8338H179.29V24.0247H172.016Z" fill="#2D3A47"></path>
  <path d="M182.344 12.2896H185.805C187.758 12.2896 189.266 12.81 190.331 13.8509C191.403 14.8834 191.931 16.3524 191.931 18.2494C191.931 20.1465 191.403 21.5568 190.356 22.5389C189.3 23.5294 187.783 24.0247 185.788 24.0247H182.344V12.2896ZM187.808 21.4896C188.395 21.2546 188.83 20.8768 189.115 20.3396C189.409 19.8024 189.551 19.0721 189.551 18.1487C189.551 16.8392 189.241 15.8907 188.621 15.3199C188.001 14.7491 187.045 14.4637 185.755 14.4637H184.716V21.8338H185.554C186.475 21.8338 187.221 21.7163 187.808 21.4896Z" fill="#2D3A47"></path>
  <path d="M195.453 24.0247V12.2896H197.825V24.0247H195.453Z" fill="#2D3A47"></path>
  <path d="M209.263 12.2896H211.634V24.0247H209.196L204.536 16.3691V24.0247H202.164V12.2896H204.586L209.254 19.8947V12.2896H209.263Z" fill="#2D3A47"></path>
  <path d="M226.295 17.5946V24.0246H224.628L224.359 22.8494C223.999 23.3279 223.53 23.6972 222.943 23.9407C222.356 24.1841 221.694 24.31 220.94 24.31C219.809 24.31 218.803 24.0498 217.923 23.5377C217.043 23.0173 216.356 22.3038 215.87 21.372C215.384 20.4487 215.141 19.391 215.141 18.199C215.141 17.007 215.384 15.9578 215.861 15.0092C216.339 14.0607 217.026 13.322 217.906 12.7848C218.786 12.2475 219.8 11.9873 220.94 11.9873C222.147 11.9873 223.22 12.2895 224.158 12.8939C225.097 13.4983 225.776 14.3629 226.22 15.4877L224.033 16.3439C223.79 15.6556 223.387 15.1351 222.843 14.7742C222.289 14.4132 221.652 14.237 220.907 14.237C219.851 14.237 219.021 14.5727 218.418 15.2527C217.814 15.9326 217.512 16.8895 217.512 18.1403C217.512 19.391 217.831 20.3731 218.476 21.0363C219.121 21.6994 220.001 22.0268 221.108 22.0268C221.996 22.0268 222.683 21.8337 223.178 21.4392C223.672 21.0447 223.915 20.5326 223.915 19.8947V19.7268H221.342V17.5862H226.279L226.295 17.5946Z" fill="#2D3A47"></path>
  <path d="M243.118 12.2896H245.741L241.047 24.0247H239.288L234.586 12.2896H237.209L240.184 20.113L243.126 12.2896H243.118Z" fill="#2D3A47"></path>
  <path d="M254.764 24.0247L253.943 21.817H249.442L248.621 24.0247H246.031L250.825 12.2896H252.585L257.345 24.0247H254.772H254.764ZM250.264 19.6345H253.138L251.705 15.8151L250.264 19.6345Z" fill="#2D3A47"></path>
  <path d="M260.273 24.0247V12.2896H262.645V21.8338H267.556V24.0247H260.282H260.273Z" fill="#2D3A47"></path>
  <path d="M270.195 19.7855V12.2979H272.567V19.5169C272.567 20.1464 272.626 20.6417 272.76 21.011C272.886 21.372 273.112 21.6406 273.422 21.8169C273.732 21.9932 274.176 22.0771 274.746 22.0771C275.576 22.0771 276.146 21.884 276.473 21.4895C276.791 21.095 276.95 20.4486 276.95 19.5337V12.2979H279.322V19.7016C279.322 21.2377 278.936 22.3877 278.174 23.16C277.403 23.9322 276.263 24.31 274.754 24.31C271.721 24.31 270.204 22.799 270.204 19.7855H270.195Z" fill="#2D3A47"></path>
  <path d="M283.438 24.0247V12.2896H291.274V14.4637H285.809V16.8728H290.93V19.0637H285.809V21.8422H291.274V24.0331H283.438V24.0247Z" fill="#2D3A47"></path>
  <path d="M141.423 44.0112C140.761 43.7174 140.216 43.2893 139.789 42.7437C139.362 42.1981 139.093 41.5601 138.984 40.8466L141.339 40.259C141.406 40.9305 141.641 41.451 142.052 41.8203C142.462 42.1813 142.982 42.366 143.627 42.366C144.155 42.366 144.574 42.24 144.893 41.9882C145.211 41.7364 145.371 41.3754 145.371 40.9221C145.371 40.5864 145.211 40.2842 144.884 40.024C144.558 39.7637 143.988 39.4699 143.175 39.1426C142.337 38.8068 141.675 38.471 141.189 38.1353C140.702 37.7995 140.359 37.4218 140.141 37.002C139.923 36.5823 139.814 36.0787 139.814 35.4911C139.814 34.8531 139.973 34.2823 140.283 33.7955C140.593 33.3002 141.029 32.9141 141.591 32.6454C142.152 32.3768 142.798 32.2341 143.543 32.2341C144.365 32.2341 145.077 32.4188 145.697 32.7881C146.318 33.1575 146.812 33.7115 147.181 34.4334L145.211 35.6674C145.035 35.2393 144.792 34.9119 144.491 34.6852C144.189 34.4502 143.854 34.3411 143.485 34.3411C143.116 34.3411 142.823 34.4502 142.571 34.6601C142.32 34.8699 142.194 35.1385 142.194 35.4491C142.194 35.7849 142.353 36.0787 142.664 36.3305C142.974 36.5823 143.569 36.8761 144.432 37.2119C145.278 37.5477 145.949 37.875 146.418 38.194C146.896 38.513 147.239 38.874 147.441 39.2685C147.65 39.663 147.751 40.1499 147.751 40.7039C147.751 41.4426 147.566 42.0973 147.214 42.6765C146.854 43.2473 146.368 43.6922 145.731 44.0028C145.102 44.3134 144.39 44.4729 143.594 44.4729C142.798 44.4729 142.085 44.3218 141.423 44.028V44.0112Z" fill="#2D3A47"></path>
  <path d="M150.801 39.9818V32.4941H153.173V39.7132C153.173 40.3427 153.231 40.838 153.365 41.2073C153.491 41.5683 153.717 41.8369 154.027 42.0132C154.337 42.1895 154.782 42.2734 155.352 42.2734C156.181 42.2734 156.751 42.0803 157.078 41.6858C157.396 41.2913 157.556 40.6449 157.556 39.73V32.4941H159.927V39.8978C159.927 41.434 159.542 42.584 158.779 43.3563C158.017 44.1285 156.868 44.5063 155.36 44.5063C152.326 44.5063 150.809 42.9953 150.809 39.9818H150.801Z" fill="#2D3A47"></path>
  <path d="M165.341 44.0115C164.679 43.7177 164.134 43.2896 163.707 42.7439C163.279 42.1983 163.011 41.5603 162.902 40.8468L165.257 40.2592C165.324 40.9308 165.559 41.4512 165.97 41.8206C166.38 42.1815 166.9 42.3662 167.545 42.3662C168.073 42.3662 168.492 42.2403 168.811 41.9885C169.129 41.7366 169.288 41.3757 169.288 40.9224C169.288 40.5866 169.129 40.2844 168.802 40.0242C168.476 39.764 167.906 39.4702 167.093 39.1428C166.255 38.807 165.593 38.4713 165.106 38.1355C164.62 37.7997 164.277 37.422 164.059 37.0023C163.841 36.5826 163.732 36.0789 163.732 35.4913C163.732 34.8534 163.891 34.2826 164.201 33.7957C164.511 33.3004 164.947 32.9143 165.509 32.6457C166.07 32.3771 166.716 32.2344 167.461 32.2344C168.283 32.2344 168.995 32.419 169.615 32.7884C170.236 33.1577 170.73 33.7118 171.099 34.4337L169.129 35.6676C168.953 35.2395 168.71 34.9121 168.409 34.6855C168.107 34.4504 167.772 34.3413 167.403 34.3413C167.034 34.3413 166.741 34.4504 166.489 34.6603C166.238 34.8702 166.112 35.1388 166.112 35.4494C166.112 35.7851 166.271 36.0789 166.581 36.3308C166.892 36.5826 167.487 36.8764 168.35 37.2121C169.196 37.5479 169.867 37.8753 170.336 38.1943C170.814 38.5132 171.157 38.8742 171.359 39.2687C171.568 39.6633 171.669 40.1501 171.669 40.7041C171.669 41.4428 171.484 42.0976 171.132 42.6768C170.772 43.2476 170.286 43.6925 169.649 44.0031C169.02 44.3137 168.308 44.4731 167.512 44.4731C166.716 44.4731 166.003 44.322 165.341 44.0282V44.0115Z" fill="#2D3A47"></path>
  <path d="M177.201 44.221V34.6599H173.656V32.4858H183.135V34.6599H179.59V44.221H177.201Z" fill="#2D3A47"></path>
  <path d="M192.362 44.221L191.54 42.0133H187.04L186.219 44.221H183.629L188.414 32.4858H190.183L194.935 44.221H192.362ZM187.861 39.8308H190.736L189.311 36.0114L187.861 39.8308Z" fill="#2D3A47"></path>
  <path d="M197.875 44.221V32.4858H200.247V44.221H197.875Z" fill="#2D3A47"></path>
  <path d="M211.688 32.4941H214.06V44.2293H211.621L206.962 36.5737V44.2293H204.59V32.4941H207.012L211.68 40.0993V32.4941H211.688Z" fill="#2D3A47"></path>
  <path d="M225.717 44.221L224.896 42.0133H220.395L219.574 44.221H216.984L221.77 32.4858H223.538L228.29 44.221H225.717ZM221.217 39.8308H224.091L222.667 36.0114L221.217 39.8308Z" fill="#2D3A47"></path>
  <path d="M231.23 32.4941H235.446C236.636 32.4941 237.558 32.7544 238.228 33.2748C238.89 33.7952 239.226 34.5255 239.226 35.4573C239.226 35.9861 239.125 36.4562 238.916 36.8759C238.706 37.2872 238.404 37.623 238.019 37.8664C239.251 38.3701 239.871 39.3354 239.871 40.7457C239.871 41.8369 239.527 42.6847 238.849 43.3059C238.161 43.9271 237.223 44.2293 236.024 44.2293H231.239V32.4941H231.23ZM236.862 35.8266C236.862 35.4405 236.737 35.1551 236.494 34.962C236.251 34.7606 235.899 34.6682 235.454 34.6682H233.602V37.027H235.454C236.393 37.027 236.871 36.6241 236.871 35.835L236.862 35.8266ZM237.08 41.6606C237.357 41.4088 237.499 41.0562 237.499 40.6113C237.499 40.1077 237.34 39.7467 237.03 39.5453C236.72 39.3354 236.318 39.2347 235.84 39.2347H233.602V42.0468H235.84C236.385 42.0468 236.804 41.9208 237.08 41.669V41.6606Z" fill="#2D3A47"></path>
  <path d="M243.398 44.2212V32.4861H245.77V42.0303H250.681V44.2212H243.407H243.398Z" fill="#2D3A47"></path>
  <path d="M255.435 44.2211V39.6127L250.977 32.4944H253.767L256.558 37.3462L259.399 32.4944H262.207L257.807 39.6127V44.2211H255.435Z" fill="#2D3A47"></path>
  <path d="M119.117 0V53.6307" stroke="#2D3A47" stroke-width="2.25" stroke-miterlimit="10"></path>
</svg>
