<svg width="199" height="63" viewBox="0 0 199 63" fill="none" xmlns="http://www.w3.org/2000/svg">
<g id="Logo" clip-path="url(#clip0_45_934)">
<path id="Vector" d="M17.3257 37.7224C17.3257 37.8194 17.2929 37.8707 17.2219 37.8707H16.4622C16.2873 37.8707 16.1452 38.0019 16.0413 38.2529C15.6806 39.0742 15.2434 40.0095 14.7405 41.0589C14.1175 42.3707 12.6308 45.7415 10.2752 51.1711C10.062 51.673 9.81063 52.2833 9.52096 53.0076C9.31873 53.4582 9.07825 53.6863 8.79951 53.6863C8.52076 53.6863 8.26935 53.4012 8.007 52.8251C7.97421 52.7624 7.42219 51.4677 6.36188 48.9411C5.30157 46.4145 4.73862 45.0913 4.68396 44.9658C3.26292 41.8061 2.47042 39.981 2.30645 39.4791C1.80363 38.3783 1.33359 37.8251 0.901813 37.8251H0.245949C0.081983 37.8251 0 37.7624 0 37.6426V36.924C0 36.8042 0.081983 36.7415 0.245949 36.7415H7.52604C7.64628 36.7415 7.70093 36.8042 7.70093 36.924V37.6426C7.70093 37.7624 7.65721 37.8251 7.55883 37.8251H5.79893C5.63496 37.8251 5.55298 37.9563 5.55298 38.2129C5.55298 38.3612 5.60217 38.5894 5.69508 38.9088C5.72788 39.057 5.95196 39.6559 6.36188 40.7053C6.79366 41.8061 7.056 42.4278 7.13252 42.5589C7.83757 44.2928 8.65194 46.2662 9.57561 48.4677C9.70132 48.7358 9.7997 48.8726 9.85982 48.8726C9.9418 48.8726 10.0402 48.7358 10.155 48.4677C11.412 45.5589 12.1663 43.7738 12.4232 43.1293C13.161 41.2586 13.5327 39.7643 13.5327 38.6521C13.5327 38.1274 13.3687 37.865 13.0408 37.865H11.1224C11.0076 37.865 10.9475 37.8023 10.9475 37.6825V36.9696C10.9475 36.8612 10.9639 36.7985 11.0021 36.7757C11.0404 36.7586 11.0786 36.7472 11.1224 36.7472H17.1071C17.2492 36.7472 17.3148 36.8099 17.3148 36.9297V37.7167" fill="#464D4E"/>
<path id="Vector_2" d="M31.1317 50.3555C30.9677 50.1844 30.8584 50.0988 30.7983 50.0988C30.7272 50.133 30.6671 50.173 30.6234 50.2072C30.3774 50.4638 30.0112 50.7262 29.5139 50.9943C28.7378 51.4106 27.6939 51.6387 26.3821 51.673C25.535 51.6844 24.6933 51.576 23.8461 51.3422C22.8842 51.0741 22.201 50.692 21.7856 50.2015C20.5777 48.7243 19.9219 46.8079 19.818 44.4581C19.7962 43.8707 19.8399 43.5798 19.9601 43.5798C20.0312 43.5798 20.2717 43.5741 20.6925 43.5627C21.1079 43.5513 21.3484 43.5456 21.403 43.5456C21.8129 43.5456 22.6984 43.4429 24.0593 43.2319C24.7753 43.1121 25.4858 42.9924 26.1854 42.884C26.5352 42.8384 27.3659 42.6673 28.6722 42.3764C29.9784 42.0912 30.7327 41.9087 30.9349 41.8232C31.1317 41.7433 31.2355 41.6292 31.2355 41.481C31.2355 41.2357 31.1863 41.0475 31.0934 40.9106C30.8092 40.4201 30.3665 39.8612 29.7544 39.2224C28.8744 38.3041 27.9015 37.6368 26.8358 37.2205C25.6006 36.7414 24.3653 36.5076 23.1247 36.5076C21.5779 36.5076 20.2334 37.0665 19.0966 38.1787C18.0417 39.1939 17.2875 40.6197 16.8284 42.4562C16.5114 43.7395 16.3911 44.9829 16.4567 46.1806C16.6098 48.5076 17.4187 50.3954 18.8834 51.8555C20.1624 53.1273 21.884 53.7661 24.0538 53.7661C25.4147 53.7661 26.7647 53.4524 28.0983 52.8308C29.3663 52.2433 30.3829 51.5475 31.159 50.7376C31.2082 50.6749 31.241 50.6064 31.2628 50.538C31.2628 50.5152 31.2137 50.4524 31.1207 50.3555H31.1317ZM20.3154 40.4315C20.5285 39.6787 20.7308 39.1483 20.933 38.846C21.5069 38.0019 22.1682 37.5798 22.9224 37.5798C23.8133 37.5798 24.6168 37.8821 25.3327 38.481C25.8356 38.9087 26.2182 39.3079 26.475 39.673C26.557 39.7927 26.7374 40.1235 27.0216 40.6654C27.1254 40.9619 27.1801 41.1159 27.1801 41.1444C27.1801 41.2927 27.0926 41.4068 26.9178 41.4924C26.6007 41.6178 25.9066 41.8003 24.8354 42.0456C23.7587 42.2908 23.0427 42.4334 22.682 42.4676C21.6162 42.5646 20.769 42.6159 20.146 42.6159C20.053 42.6159 20.0039 42.4962 20.0039 42.2509C20.0039 41.8003 20.1077 41.1958 20.3209 40.4429L20.3154 40.4315Z" fill="#464D4E"/>
<path id="Vector_3" d="M44.8228 38.4753C44.6698 39.4677 44.4512 40.2662 44.1724 40.8764C44.1123 41.0133 43.9866 41.1616 43.7844 41.3384C43.6095 41.3612 43.4619 41.2928 43.3417 41.1331C42.9099 40.4943 42.5984 40.1122 42.4071 39.9753C41.8551 39.5703 41.2703 39.3707 40.6472 39.3707C39.4885 39.3707 38.5867 39.6331 37.9363 40.1578C37.816 40.2547 37.7614 40.4201 37.7614 40.654C37.7614 40.7281 37.7559 42.1369 37.745 44.8745C37.734 47.6179 37.7286 49.0665 37.7286 49.2262C37.7286 51.2852 37.9308 52.3232 38.3407 52.346L41.3686 52.4544C41.5107 52.4544 41.5818 52.5399 41.5818 52.711V53.3555C41.5818 53.481 41.5326 53.538 41.4397 53.538L32.1373 53.4297C31.9734 53.4297 31.8914 53.3669 31.8914 53.2471V52.6027C31.8914 52.4316 31.9624 52.346 32.1046 52.346H33.9847C34.2197 52.346 34.3345 52.2319 34.3345 51.9981V40.1977C34.3345 38.5209 34.1377 37.6825 33.7387 37.6825H31.8203C31.7056 37.6825 31.6454 37.6255 31.6454 37.5V36.7471C31.6454 36.6103 31.7056 36.5475 31.8203 36.5475H34.3345C35.2964 36.5475 36.0179 36.4962 36.4988 36.3992C37.0017 36.2281 37.3679 36.1426 37.5865 36.1426C37.7504 36.1426 37.8324 36.308 37.8324 36.6388C37.8324 36.7243 37.8215 37.0266 37.7996 37.5456C37.7778 38.0646 37.7668 38.3612 37.7668 38.4354C37.7668 38.7776 37.8488 38.8745 38.0128 38.7319C38.8545 38.0361 39.3518 37.6255 39.4885 37.5C40.4395 36.8384 41.3304 36.5133 42.1611 36.5133C43.2761 36.5133 44.1397 36.9924 44.7463 37.9449C44.8502 38.116 44.872 38.2928 44.8174 38.481" fill="#464D4E"/>
<path id="Vector_4" d="M57.47 51.0685C57.5302 51.1768 57.4591 51.3194 57.2569 51.4905C56.7322 51.9411 56.0217 52.3518 55.1308 52.7225C53.7699 53.2985 52.4636 53.5837 51.2065 53.5837C49.8839 53.5837 48.8564 53.2301 48.1295 52.5172C47.4025 51.8099 47.0363 50.8575 47.0363 49.6711C47.0363 49.5 47.0582 48.1711 47.1074 45.6787C47.1566 43.1863 47.1784 41.8803 47.1784 41.7434C47.1784 40.1179 47.1566 39.1654 47.1074 38.8803C47.0965 38.7206 46.9598 38.4981 46.7029 38.2187C46.304 38.0248 45.8339 37.7966 45.2928 37.54C45.107 37.443 45.0141 37.3004 45.0141 37.1179C45.0141 36.924 45.107 36.7757 45.2928 36.6787C45.5497 36.5305 46.293 35.9886 47.5173 35.0533C48.7471 34.1179 49.4302 33.5704 49.5778 33.4107C49.7254 33.251 49.9221 33.1711 50.1681 33.1711C50.4742 33.1711 50.5999 33.3365 50.5561 33.6673C50.496 34.3289 50.4304 35.1046 50.3485 36C50.3102 36.3651 50.3703 36.5647 50.5234 36.5875C52.2122 36.77 54.1361 36.8613 56.295 36.8613C56.519 36.8613 56.612 36.981 56.5792 37.2263C56.5081 37.5457 56.4152 37.9506 56.295 38.4354C56.2458 38.6065 56.1365 38.6921 55.9616 38.6921C55.8304 38.6921 54.9067 38.635 53.1796 38.5267C51.458 38.4183 50.5725 38.3613 50.5234 38.3613C50.3813 38.3613 50.3102 38.4582 50.3102 38.6578V48.1312C50.3102 49.6483 50.5397 50.5951 50.9989 50.9772C51.376 51.2852 52.1521 51.4335 53.3381 51.4335C54.4531 51.4335 55.4478 51.251 56.3277 50.886L57.1203 50.5381C57.1913 50.5381 57.3061 50.7149 57.47 51.0685Z" fill="#464D4E"/>
<path id="Vector_5" d="M66.439 53.287C66.439 53.384 66.3789 53.4353 66.2641 53.4353H57.5739C57.5192 53.4353 57.47 53.4239 57.4427 53.3954C57.4154 53.3726 57.399 53.3098 57.399 53.2129V52.4999C57.399 52.403 57.4591 52.3517 57.5739 52.3517H59.771C59.9569 52.3517 60.0607 52.2376 60.0716 52.0037C60.1427 46.5228 60.1755 42.7186 60.1755 40.5855C60.1755 38.7034 59.935 37.7623 59.454 37.7623H57.5356C57.3935 37.7623 57.3225 37.6882 57.3225 37.5399V36.6786C57.3225 36.5703 57.3717 36.5132 57.4646 36.5132H59.8421C60.5909 36.5132 61.1975 36.4904 61.6512 36.4391C62.788 36.3193 63.4002 36.2566 63.4821 36.2566C63.6461 36.2566 63.7281 36.3992 63.7281 36.6786C63.7281 36.7414 63.7172 37.2832 63.6953 38.3041C63.6734 39.325 63.6625 39.884 63.6625 39.9809C63.5423 40.8478 63.4876 43.7452 63.4876 48.6615C63.4876 51.1197 63.7062 52.3517 64.138 52.3517H66.2696C66.3843 52.3517 66.4445 52.4144 66.4445 52.5342V53.287" fill="#464D4E"/>
<path id="Vector_6" d="M80.5291 50.4239C80.5291 50.6064 80.2285 50.9315 79.6328 51.3992C77.6597 52.9277 75.6812 53.692 73.6863 53.692C72.1013 53.692 70.8879 53.4638 70.0463 53.0133C68.6361 52.2661 67.5594 51.2281 66.8107 49.8935C66.1329 48.7186 65.7886 47.1273 65.7886 45.1197C65.7886 43.9677 65.9744 42.7756 66.3461 41.5323C66.7177 40.2889 67.4829 39.1197 68.6471 38.019C69.8167 36.9182 71.4946 36.365 73.6863 36.365C75.7031 36.365 77.3427 37.0323 78.6107 38.3669C79.4087 39.1882 79.8077 39.9296 79.8077 40.5855C79.8077 41.2813 79.5563 41.6292 79.0534 41.6292C78.1954 41.6292 77.463 41.2927 76.8563 40.6197C76.3644 40.0665 75.9927 39.3422 75.7468 38.4353C75.6047 37.9448 75.2877 37.6483 74.7958 37.5342C74.3531 37.4372 73.9924 37.3859 73.7246 37.3859C72.9867 37.3859 72.4839 37.4372 72.2106 37.5342C71.4728 37.8023 70.8552 38.3156 70.3633 39.0741C69.6254 40.2376 69.2538 41.8517 69.2538 43.922C69.2538 46.249 69.8495 48.1882 71.0464 49.7395C71.9592 50.9258 73.4294 51.519 75.4462 51.519C77.0421 51.519 78.3867 51.1369 79.4907 50.3783C79.6328 50.2927 79.8077 50.1673 80.0209 50.0133C80.163 49.865 80.2832 49.8935 80.3925 50.0874C80.4854 50.1844 80.5291 50.2985 80.5291 50.4182" fill="#464D4E"/>
<path id="Vector_7" d="M95.696 52.2262C95.6741 52.289 95.614 52.3802 95.5211 52.5057C94.9199 53.1274 94.3843 53.5608 93.9033 53.8061C93.7995 53.8916 93.6847 53.9372 93.5699 53.9372C92.7118 53.9372 91.8319 53.6007 90.9246 52.9163C90.0173 52.2376 89.3833 51.4448 89.0335 50.538C88.9515 50.3156 88.8586 50.2928 88.7493 50.4639C88.3175 51.211 87.7764 51.8498 87.1315 52.3916C86.0985 53.2357 85 53.6578 83.8413 53.6578C82.9504 53.6578 82.1579 53.441 81.4692 53.0133C80.6822 52.5228 80.2887 51.7642 80.2887 50.7376C80.2887 49.5114 80.6603 48.4391 81.3982 47.5095C82.136 46.5798 83.1471 45.8726 84.4261 45.3992C85.7706 44.8859 87.2026 44.4467 88.7165 44.076C88.8204 44.0532 88.8805 43.9163 88.8914 43.6711C88.9625 41.846 88.9625 40.6198 88.8914 39.981C88.8204 39.3707 88.5689 38.8802 88.1372 38.5152C87.6562 38.1102 87.0222 37.9106 86.2406 37.9106C85.4591 37.9106 84.8032 38.076 84.2894 38.4068C84.0435 38.5551 83.9232 38.8289 83.9232 39.2338V39.9525C83.9232 40.5855 83.7921 41.116 83.5352 41.5323C83.1581 42.2566 82.5077 42.616 81.584 42.616C80.868 42.616 80.5073 42.3023 80.5073 41.6806C80.5073 41.1045 80.797 40.403 81.3763 39.5703C81.9557 38.7376 82.6279 38.0988 83.3931 37.6597C84.59 36.9525 86.0439 36.5931 87.7546 36.5931C89.2521 36.5931 90.4382 36.9582 91.3072 37.6939C91.6242 37.9505 91.8811 38.4182 92.0833 39.0912C92.2582 39.6901 92.3402 40.2262 92.3292 40.7053L91.9958 47.8802C91.9467 49.2376 92.3019 50.2129 93.0507 50.8175C93.7065 51.3422 94.4991 51.7414 95.4282 52.0095C95.614 52.0722 95.7069 52.1464 95.7069 52.2319M88.8204 45.5076C88.8204 45.2795 88.7275 45.1597 88.5362 45.1597C87.7491 45.1597 86.9074 45.3992 86.0056 45.8726C84.3277 46.7623 83.4915 47.9487 83.4915 49.4144C83.4915 50.2928 83.7046 50.9315 84.1255 51.3137C84.5463 51.7015 85.0327 51.8555 85.5848 51.7814C86.5084 51.6616 87.372 51.0285 88.17 49.8878C88.3831 49.5912 88.5143 49.2547 88.5744 48.8783C88.7329 47.692 88.8204 46.5684 88.8204 45.5019V45.5076Z" fill="#464D4E"/>
<path id="Vector_8" d="M105.561 53.2871C105.561 53.3841 105.501 53.4354 105.386 53.4354H96.3464C96.1824 53.4354 96.1004 53.3727 96.1004 53.2529V52.5742C96.1004 52.4259 96.166 52.3575 96.3081 52.3575H98.7512C98.9972 52.3575 99.1229 52.2149 99.1229 51.9354V28.6483C99.1229 25.848 98.8824 24.4449 98.4014 24.4449H96.5541C96.412 24.4449 96.3464 24.3651 96.3464 24.2054V23.6179C96.3464 23.4354 96.3901 23.3442 96.4885 23.3442H98.1391C99.0518 23.3442 100.041 23.2073 101.096 22.9392C101.965 22.7054 102.386 22.5913 102.358 22.5913C102.615 22.5913 102.747 22.7681 102.747 23.1217C102.747 23.1559 102.708 29.9145 102.626 37.1179C102.544 44.3271 102.501 48.0571 102.501 48.3137C102.501 51.0058 102.73 52.3518 103.184 52.3518H105.381C105.496 52.3518 105.556 52.4145 105.556 52.5343V53.2871" fill="#464D4E"/>
<path id="Vector_9" d="M124.734 45.2852C124.734 47.9886 123.898 50.1274 122.22 51.7072C120.695 53.1388 118.897 53.8574 116.82 53.8574C115.202 53.8574 113.65 53.5038 112.158 52.7909C111.48 52.4715 110.989 52.3118 110.682 52.3118C110.251 52.3118 109.95 52.962 109.786 54.2567C109.764 54.5133 109.666 54.6445 109.502 54.6445H109.136C108.972 54.6445 108.89 54.4278 108.89 54C108.89 53.9145 108.901 51.6559 108.923 47.2186C108.95 42.7814 108.955 40.3974 108.955 40.0494C108.955 37.7738 108.966 32.4867 108.994 30.4563C109.015 28.4259 109.026 27.462 109.026 27.5761C109.026 25.4715 108.764 24.4164 108.234 24.4164H106.212C106.07 24.4164 106.004 24.3422 106.004 24.1996V23.6293C106.004 23.4354 106.064 23.3384 106.179 23.3384H106.829C109.289 23.3384 110.972 23.1103 111.879 22.6597C112.185 22.5 112.415 22.4202 112.563 22.4202C112.683 22.4202 112.738 22.6084 112.738 22.9905C112.738 23.0019 112.683 24.9126 112.579 28.7281C112.475 32.538 112.421 37.9905 112.421 38.8061C112.421 39.1141 112.481 39.2053 112.595 39.0799C113.71 38.1502 114.503 37.557 114.967 37.3004C115.787 36.8612 116.727 36.6388 117.782 36.6388C119.881 36.6388 121.575 37.443 122.865 39.0456C124.106 40.597 124.729 42.6787 124.729 45.2852M121.603 46.2605C121.603 44.1331 121.1 42.3479 120.089 40.9164C119.247 39.7186 117.793 39.1198 115.727 39.1198C114.426 39.1198 113.366 39.4677 112.557 40.1692C112.464 40.2662 112.415 40.4088 112.415 40.5913V47.1616C112.415 48.8156 112.508 50.1445 112.694 51.1426C112.776 51.5704 112.956 51.8612 113.24 52.0038C114.049 52.4316 115.071 52.6483 116.301 52.6483C117.848 52.6483 119.132 52.0837 120.154 50.9601C121.116 49.8936 121.597 48.3308 121.597 46.2605H121.603Z" fill="#84C559"/>
<path id="Vector_10" d="M137.349 38.4753C137.196 39.4677 136.977 40.2662 136.698 40.8764C136.638 41.0133 136.513 41.1616 136.31 41.3384C136.135 41.3612 135.988 41.2928 135.868 41.1331C135.436 40.4943 135.124 40.1122 134.933 39.9753C134.381 39.5703 133.796 39.3707 133.173 39.3707C132.014 39.3707 131.107 39.6331 130.468 40.1578C130.353 40.2547 130.293 40.4201 130.293 40.654C130.293 40.7281 130.287 42.1369 130.276 44.8745C130.265 47.6179 130.26 49.0665 130.26 49.2262C130.26 51.2852 130.462 52.3232 130.872 52.346L133.9 52.4544C134.042 52.4544 134.108 52.5399 134.108 52.711V53.3555C134.108 53.481 134.059 53.538 133.966 53.538L124.663 53.4297C124.499 53.4297 124.417 53.3669 124.417 53.2471V52.6027C124.417 52.4316 124.488 52.346 124.625 52.346H126.505C126.74 52.346 126.855 52.2319 126.855 51.9981V40.1977C126.855 38.5209 126.658 37.6825 126.259 37.6825H124.341C124.221 37.6825 124.166 37.6255 124.166 37.5V36.7471C124.166 36.6103 124.221 36.5475 124.341 36.5475H126.855C127.817 36.5475 128.538 36.4962 129.019 36.3992C129.522 36.2281 129.888 36.1426 130.107 36.1426C130.271 36.1426 130.353 36.308 130.353 36.6388C130.353 36.7243 130.342 37.0266 130.315 37.5456C130.293 38.0646 130.282 38.3612 130.282 38.4354C130.282 38.7776 130.364 38.8745 130.528 38.7319C131.375 38.0361 131.867 37.6255 132.009 37.5C132.96 36.8384 133.851 36.5133 134.682 36.5133C135.797 36.5133 136.66 36.9924 137.267 37.9449C137.371 38.116 137.393 38.2928 137.338 38.481" fill="#84C559"/>
<path id="Vector_11" d="M147.444 53.287C147.444 53.384 147.384 53.4353 147.269 53.4353H138.579C138.436 53.4296 138.404 53.3897 138.404 53.2129C138.453 53.0361 138.262 52.306 138.579 52.3517H140.776C140.967 52.3517 141.065 52.2376 141.076 52.0037C140.88 46.9961 141.907 38.3212 140.459 37.7623H138.54C138.163 37.8022 138.387 36.8783 138.327 36.6786C138.141 36.325 140.776 36.5931 140.841 36.5132C141.896 36.5418 144.099 36.2851 144.481 36.2566C144.946 36.3878 144.645 37.0836 144.694 38.3041C144.673 39.325 144.662 39.884 144.662 39.9809C144.541 40.8478 144.487 43.7452 144.487 48.6615C144.487 51.1197 144.705 52.3517 145.137 52.3517H147.269C147.586 52.3174 147.394 53.1216 147.444 53.287Z" fill="#84C559"/>
<path id="Vector_12" d="M166.354 51.1426C166.354 51.4506 166.305 51.6274 166.212 51.673C165.075 52.0894 163.72 52.6027 162.146 53.2186C160.949 53.7719 160.135 54.0456 159.703 54.0456C159.528 54.0456 159.44 53.9088 159.44 53.6236V52.3574C159.44 51.4278 159.451 51.0456 159.479 51.2167C159.397 50.9487 159.266 50.8974 159.091 51.0685C158.446 51.6787 157.67 52.2605 156.757 52.8194C155.85 53.3783 154.642 53.6578 153.144 53.6578C152.215 53.6578 151.27 53.3555 150.297 52.7567C149.253 52.1065 148.493 51.2795 148.028 50.2814C147.312 48.7415 146.957 47.0647 146.957 45.251C146.957 42.2795 147.739 40.0209 149.296 38.481C150.608 37.1692 152.445 36.519 154.8 36.519C156.019 36.519 157.418 36.9582 158.987 37.8365C159.151 37.9335 159.233 37.8251 159.233 37.5057C159.233 37.4316 159.222 36.3308 159.2 34.2034C159.173 32.1616 159.162 31.0266 159.162 30.8042C159.184 28.654 158.899 27.5761 158.298 27.5761H156.03C155.899 27.5761 155.833 27.4962 155.833 27.3365V26.7491C155.833 26.5666 155.899 26.4753 156.03 26.4753H156.855C158.451 26.4753 159.807 26.2757 160.922 25.8707C161.976 25.5057 162.572 25.3175 162.698 25.3175C162.84 25.3175 162.911 25.4943 162.911 25.8308C162.911 25.8821 162.895 26.6749 162.856 28.2205C162.818 29.7605 162.802 30.673 162.802 30.9525V48.1711C162.802 50.4582 163.135 51.5247 163.802 51.365C164.223 51.2167 164.753 51.0456 165.387 50.8517C165.759 50.6692 166.026 50.578 166.179 50.578C166.3 50.578 166.354 50.7662 166.354 51.1483M159.44 49.1065C159.44 49.1065 159.424 48.4335 159.391 47.0133C159.342 45.4962 159.315 44.2529 159.304 43.289C159.282 41.4924 159.233 40.2491 159.162 39.5647C159.123 39.2225 158.981 38.9715 158.719 38.8118C157.615 38.116 156.369 37.7681 154.97 37.7681C154.347 37.7681 153.674 37.9734 152.947 38.3726C152.292 38.7377 151.827 39.1255 151.559 39.5304C150.761 40.7167 150.362 42.4107 150.362 44.6179C150.362 46.5742 150.761 48.2053 151.559 49.5C152.286 50.6977 153.472 51.2966 155.112 51.2966C156.751 51.2966 158.172 50.8631 159.227 49.9905C159.369 49.8707 159.435 49.5742 159.435 49.1122L159.44 49.1065Z" fill="#84C559"/>
<path id="Vector_13" d="M181.554 56.9202C181.554 58.4145 180.849 59.7434 179.444 60.9069C177.745 62.2985 175.099 63 171.508 63C169.032 63 167.196 62.5552 166.005 61.6597C164.972 60.8898 164.458 59.886 164.458 58.6483C164.458 57.5248 164.977 56.4696 166.005 55.4886C166.464 55.0495 167.289 54.5989 168.486 54.1483C168.77 53.9772 168.754 53.8632 168.453 53.8175C166.846 53.4126 166.043 52.751 166.043 51.8327C166.043 50.7947 166.857 49.6768 168.486 48.4905C168.628 48.3936 168.508 48.2339 168.136 48.0114C167.371 47.5723 166.808 47.173 166.431 46.8194C165.398 45.8156 164.884 44.4696 164.884 42.7814C164.884 40.9848 165.496 39.4677 166.721 38.2358C167.945 37.0038 169.727 36.3879 172.06 36.3879C173.339 36.3879 174.531 36.4791 175.629 36.6616C176.405 36.7871 177.395 36.8441 178.603 36.8441C179.351 36.8441 180.018 36.7415 180.592 36.5305C181.095 36.3594 181.335 36.2738 181.314 36.2738C181.434 36.2738 181.488 36.4164 181.488 36.6959C181.488 37.3689 181.259 37.9449 180.8 38.424C180.658 38.5723 180.352 38.6464 179.865 38.6464C179.75 38.6464 179.149 38.5837 178.072 38.4639C177.706 38.424 177.504 38.4525 177.455 38.5381C177.406 38.6236 177.455 38.7206 177.597 38.8346C178.537 39.7757 179.002 40.9677 179.002 42.4107C179.002 44.1331 178.313 45.6331 176.936 46.8993C175.558 48.1654 173.809 48.7985 171.689 48.7985C170.94 48.7985 170.41 48.7358 170.104 48.616C169.94 48.5647 169.803 48.5989 169.699 48.7073C168.819 49.232 168.366 49.8308 168.327 50.5095C168.289 51.097 168.748 51.4449 169.699 51.5533C170.475 51.6388 171.235 51.6845 171.984 51.6845C174.176 51.6845 175.859 51.8213 177.034 52.0894C178.264 52.3689 179.313 52.8708 180.182 53.5951C181.1 54.3651 181.554 55.4772 181.554 56.9145M178.903 57.8784C178.903 57.5248 178.767 57.1198 178.499 56.6692C178.138 56.059 177.646 55.6426 177.023 55.4202C175.826 54.9924 174.094 54.7757 171.831 54.7757C170.109 54.7757 168.825 55.1521 167.978 55.8936C167.18 56.5894 166.764 57.4677 166.731 58.5171C166.699 59.4582 167.13 60.2453 168.032 60.867C168.934 61.4943 170.404 61.8023 172.448 61.8023C174.493 61.8023 176.105 61.4202 177.225 60.6502C178.346 59.8803 178.903 58.9563 178.903 57.8784ZM175.575 43.3974C175.575 41.635 175.159 40.2719 174.329 39.3023C173.388 38.2244 172.306 37.6883 171.077 37.6883C169.962 37.6883 169.207 38.0019 168.808 38.6236C168.306 39.4164 168.054 40.3974 168.054 41.5609C168.054 43.078 168.306 44.3441 168.808 45.3594C169.595 46.9107 170.77 47.6921 172.345 47.6921C173.432 47.6921 174.203 47.3498 174.646 46.6654C175.269 45.7244 175.58 44.635 175.58 43.3974H175.575Z" fill="#84C559"/>
<path id="Vector_14" d="M194.857 50.538C194.835 50.6121 194.797 50.6749 194.753 50.7376C193.977 51.5475 192.961 52.2433 191.693 52.8308C190.354 53.4524 189.009 53.7661 187.648 53.7661C185.478 53.7661 183.757 53.1273 182.478 51.8555C181.013 50.4011 180.204 48.5076 180.051 46.1806C179.98 44.9829 180.1 43.7395 180.417 42.4562C180.876 40.6197 181.631 39.1939 182.685 38.1787C183.822 37.0665 185.167 36.5076 186.713 36.5076C187.954 36.5076 189.195 36.7471 190.425 37.2205C191.49 37.6368 192.463 38.3041 193.343 39.2224C193.955 39.8612 194.398 40.4201 194.682 40.9106C194.775 41.0475 194.824 41.2357 194.824 41.481C194.824 41.6292 194.726 41.7433 194.524 41.8232C194.327 41.903 193.573 42.0855 192.261 42.3764C190.955 42.6673 190.124 42.8327 189.774 42.884C189.069 42.9981 188.359 43.1121 187.648 43.2319C186.287 43.4372 185.402 43.5456 184.992 43.5456C184.932 43.5456 184.697 43.5513 184.281 43.5627C183.866 43.5741 183.62 43.5798 183.549 43.5798C183.434 43.5798 183.385 43.8764 183.407 44.4581C183.511 46.8079 184.167 48.7243 185.374 50.2015C185.784 50.692 186.473 51.0684 187.429 51.3422C188.277 51.576 189.118 51.6844 189.965 51.673C191.277 51.6387 192.321 51.4106 193.097 50.9943C193.589 50.7262 193.961 50.4638 194.207 50.2072C194.256 50.173 194.311 50.133 194.382 50.0988C194.442 50.0988 194.551 50.1844 194.715 50.3555C194.808 50.4524 194.857 50.5152 194.857 50.538ZM190.758 41.1387C190.758 41.1387 190.703 40.9562 190.599 40.6597C190.315 40.1235 190.135 39.7927 190.053 39.6673C189.796 39.3022 189.413 38.903 188.911 38.4752C188.195 37.8764 187.391 37.5741 186.5 37.5741C185.746 37.5741 185.085 37.9962 184.511 38.8403C184.314 39.1483 184.106 39.673 183.899 40.4258C183.686 41.1787 183.582 41.7832 183.582 42.2338C183.582 42.4791 183.631 42.5988 183.724 42.5988C184.347 42.5988 185.189 42.5475 186.254 42.4505C186.621 42.4106 187.337 42.2737 188.413 42.0285C189.485 41.7832 190.179 41.6007 190.496 41.4752C190.671 41.3897 190.758 41.2756 190.758 41.1273V41.1387Z" fill="#84C559"/>
<path id="Vector_15" d="M195.994 61.4201V59.7376H195.382V59.4467H196.929V59.7376H196.311V61.4201H195.994ZM197.136 61.4201V59.441H197.601L198.082 61.0209L198.546 59.441H199V61.4201H198.71V59.7604L198.224 61.4201H197.94L197.431 59.7376V61.4201H197.142H197.136Z" fill="#464D4E"/>
<path id="Vector_16" d="M142.639 30.2224C130.047 10.8536 115.951 0.627376 101.861 0.627376C101.73 0.627376 101.599 0.627376 101.468 0.627376C87.5141 0.815589 73.9104 11.0475 62.1322 30.2167L61.6239 29.8802C73.5223 10.5228 87.2955 0.193916 101.462 0C101.593 0 101.73 0 101.861 0C116.159 0 130.424 10.3175 143.137 29.8745L142.639 30.2281V30.2224Z" fill="#84C559"/>
<path id="Vector_17" d="M63.6625 30.1997C63.6625 30.9468 63.3236 31.6141 62.6404 32.2016C62.0556 32.7035 61.5091 32.9544 61.0063 32.9544C60.0443 32.9544 59.5688 32.4753 59.5688 31.5229C59.5688 30.9982 59.8038 30.4449 60.2684 29.8689C60.8204 29.1959 61.5145 28.8594 62.3453 28.8594C63.2253 28.8594 63.6625 29.3042 63.6625 30.1997Z" fill="#464D4E"/>
<path id="Vector_18" d="M144.667 30.1996C144.875 32.2699 140.716 34.4886 140.568 31.5228C140.519 29.2642 144.552 27.4848 144.667 30.1996Z" fill="#84C559"/>
</g>
<defs>
<clipPath id="clip0_45_934">
<rect width="199" height="63" fill="white"/>
</clipPath>
</defs>
</svg>
