<?xml version="1.0" encoding="UTF-8" ?>
<!--Vectorized by Wikimedia Commons Contributors 2024 - public domain image, Trademark rights might apply-->
<!DOCTYPE svg PUBLIC "-//W3C//DTD SVG 1.1//EN" "http://www.w3.org/Graphics/SVG/1.1/DTD/svg11.dtd">
<svg width="1920pt" height="620pt" viewBox="0 0 1920 620" version="1.1" xmlns="http://www.w3.org/2000/svg">
  <g>
    <path fill="#f48120" opacity="1.00" d=" M 1592.08 0.00 L 1620.92 0.00 C 1627.24 1.19 1633.76 0.82 1640.16 1.69 C 1655.16 3.14 1670.12 5.31 1684.80 8.74 C 1726.09 18.16 1766.13 36.57 1796.89 66.15 C 1810.08 79.60 1821.31 94.90 1830.66 111.23 C 1834.80 119.69 1839.44 127.93 1842.99 136.66 C 1860.49 178.22 1866.80 224.26 1862.28 269.03 C 1859.73 293.80 1853.93 318.34 1843.95 341.20 C 1840.19 348.75 1836.55 356.37 1832.54 363.80 C 1812.07 398.63 1781.37 427.36 1745.26 445.46 C 1704.70 466.94 1658.52 475.64 1612.99 477.30 C 1600.61 477.08 1588.20 477.85 1575.87 476.63 C 1538.97 474.52 1502.12 466.25 1468.80 449.98 C 1435.83 433.79 1406.89 409.05 1386.94 378.10 C 1361.29 339.93 1349.66 293.66 1348.69 248.01 C 1348.04 204.55 1356.28 160.27 1376.79 121.67 C 1395.52 85.83 1424.92 55.79 1460.02 35.79 C 1495.77 15.26 1536.55 4.57 1577.48 1.37 C 1582.31 0.56 1587.30 1.17 1592.08 0.00 M 1598.42 123.81 L 1598.61 124.28 C 1596.08 124.33 1593.61 124.73 1591.15 125.15 C 1589.46 125.48 1587.83 125.84 1586.17 126.15 C 1585.02 126.42 1583.89 126.71 1582.79 127.03 C 1564.88 131.72 1549.92 144.40 1540.61 160.17 C 1531.80 175.81 1527.34 193.53 1525.14 211.23 C 1523.85 220.44 1523.71 229.74 1523.83 239.01 C 1523.61 250.30 1524.47 261.59 1526.14 272.75 C 1526.33 274.79 1526.71 276.83 1527.18 278.83 C 1529.83 293.13 1534.31 307.18 1541.60 319.83 C 1545.72 326.41 1550.61 332.45 1556.36 337.68 C 1572.59 352.09 1595.66 356.64 1616.76 353.87 C 1626.93 352.64 1636.98 349.65 1645.81 344.35 C 1654.75 338.59 1662.35 330.80 1667.99 321.80 C 1671.14 315.25 1675.05 309.00 1677.04 301.96 C 1680.48 292.54 1682.60 282.68 1683.85 272.74 C 1685.62 260.91 1686.27 248.91 1686.16 236.95 C 1686.39 214.06 1684.20 190.63 1675.42 169.28 C 1668.57 152.60 1656.52 137.37 1639.69 130.01 C 1637.23 128.98 1634.69 128.18 1632.17 127.35 C 1621.36 123.53 1609.72 123.82 1598.42 123.81 Z"/>
    <path fill="#f48120" opacity="1.00" d=" M 707.45 4.42 C 708.14 4.42 708.85 4.42 709.55 4.42 C 717.28 5.23 725.10 4.20 732.84 4.98 C 747.03 5.61 761.18 6.96 775.26 8.82 C 799.65 12.59 824.09 18.31 846.26 29.45 C 864.92 38.40 881.97 51.33 894.09 68.24 C 899.45 75.43 903.62 83.45 907.11 91.70 C 911.66 102.93 914.64 114.73 916.18 126.74 C 917.86 139.09 917.68 151.54 918.31 163.95 C 918.28 249.64 918.30 335.34 918.30 421.03 C 919.06 429.40 920.13 438.05 924.30 445.51 C 926.60 450.81 930.12 455.41 933.24 460.25 C 875.54 460.38 817.85 460.23 760.16 460.32 C 760.19 449.24 760.14 438.16 760.18 427.08 C 756.54 427.80 754.09 430.91 750.99 432.70 C 746.03 435.64 741.38 439.09 736.20 441.64 C 703.52 460.65 665.55 468.89 628.03 470.31 C 618.69 470.27 609.34 470.32 600.00 470.29 C 573.24 468.49 546.07 462.91 522.57 449.54 C 504.91 440.00 489.51 426.16 478.41 409.41 C 477.59 408.42 476.91 407.32 476.32 406.19 C 475.20 404.60 474.27 402.90 473.36 401.20 C 467.34 391.66 463.81 380.84 460.46 370.14 C 455.45 351.16 454.04 331.30 455.83 311.78 C 458.06 292.08 463.94 272.52 474.74 255.77 C 485.84 238.43 501.04 223.91 518.10 212.51 C 523.94 209.30 529.42 205.33 535.68 202.99 C 542.24 199.54 549.28 197.22 556.20 194.62 C 596.19 181.98 638.25 179.02 679.46 172.52 C 703.86 168.87 728.08 163.92 751.76 156.96 C 751.13 147.79 750.69 138.20 746.40 129.86 C 742.22 119.82 732.33 113.43 722.23 110.38 C 707.06 106.46 691.18 106.20 675.66 107.60 C 666.81 108.74 657.41 110.36 650.35 116.23 C 647.75 118.29 645.67 120.88 643.49 123.35 C 638.94 130.83 636.83 139.40 634.90 147.85 C 624.94 147.97 615.00 148.48 605.03 148.36 C 597.56 149.61 589.88 147.91 582.48 149.49 C 582.48 149.23 582.50 148.70 582.51 148.44 C 582.06 148.78 581.18 149.45 580.73 149.79 L 580.91 148.39 C 579.31 149.86 576.95 149.14 575.00 149.32 C 568.30 148.92 561.66 150.21 554.97 149.83 C 548.62 149.54 542.32 150.52 535.98 150.30 C 532.39 150.38 528.74 149.94 525.20 150.76 L 524.67 150.38 C 519.06 151.49 513.30 150.28 507.66 151.12 C 500.51 151.53 493.33 150.87 486.22 151.76 L 485.65 151.39 C 480.65 152.29 475.54 151.68 470.50 151.77 C 473.37 133.96 477.45 116.14 484.97 99.66 C 496.85 72.00 519.96 50.34 546.20 36.24 C 549.53 34.11 553.03 32.24 556.78 30.94 C 559.65 29.43 562.66 28.21 565.66 26.96 C 604.06 11.29 645.87 6.33 687.02 4.69 C 693.83 4.54 700.67 5.07 707.45 4.42 M 701.19 271.52 C 684.47 275.62 667.48 278.99 651.31 285.01 C 647.52 286.71 643.84 288.65 640.17 290.60 C 628.80 297.73 618.47 308.91 617.91 323.00 C 618.40 327.75 619.33 332.52 621.53 336.80 C 626.26 345.11 634.04 351.75 643.26 354.46 C 656.22 358.60 670.21 357.53 683.15 353.88 C 707.59 346.84 730.70 331.15 741.96 307.79 C 749.60 291.28 751.26 272.82 750.72 254.85 C 734.54 261.31 717.81 266.36 701.19 271.52 Z"/>
    <path fill="#f48120" opacity="1.00" d=" M 26.73 17.72 C 158.19 17.65 289.66 17.77 421.12 17.67 C 408.75 29.78 396.66 42.17 384.40 54.39 C 378.04 60.40 372.57 67.25 366.15 73.20 C 345.13 95.13 323.04 116.05 302.22 138.16 C 285.54 155.19 268.71 172.08 251.83 188.92 C 233.82 208.19 214.94 226.66 196.38 245.41 C 192.26 249.63 187.85 253.57 184.09 258.13 C 162.57 280.24 140.68 302.01 118.93 323.89 C 113.01 330.94 105.97 336.93 99.86 343.80 C 85.88 357.87 71.82 371.85 57.88 385.94 C 51.98 392.98 44.95 398.95 38.85 405.81 C 25.91 418.80 12.95 431.77 0.00 444.75 L 0.00 362.62 C 3.84 357.33 8.76 352.98 13.31 348.33 C 28.15 332.51 44.20 317.86 58.79 301.82 C 64.29 296.30 69.94 290.92 75.19 285.16 C 89.08 271.05 103.34 257.28 116.83 242.78 C 131.34 227.95 145.97 213.23 160.67 198.58 C 179.74 177.71 200.61 158.52 219.83 137.79 C 228.09 129.71 235.93 121.23 244.17 113.14 C 254.84 102.17 266.06 91.72 276.29 80.33 C 285.68 71.02 294.60 61.24 304.29 52.22 C 289.61 52.40 274.94 52.25 260.26 52.30 C 245.56 67.26 230.68 82.06 215.86 96.90 C 199.29 114.61 182.02 131.66 164.89 148.83 C 118.82 148.84 72.75 148.82 26.68 148.84 C 26.75 105.13 26.66 61.43 26.73 17.72 Z"/>
    <path fill="#f48120" opacity="1.00" d=" M 902.32 19.32 C 905.77 18.30 909.40 18.76 912.96 18.70 C 967.96 18.69 1022.97 18.73 1077.98 18.69 C 1080.54 18.82 1083.28 18.25 1085.75 19.22 C 1099.63 79.54 1113.45 139.88 1127.20 200.24 C 1130.32 212.72 1132.08 225.48 1134.46 238.11 C 1140.70 271.31 1145.24 304.79 1149.73 338.25 C 1151.10 320.64 1153.68 303.16 1155.86 285.64 C 1159.63 258.20 1165.37 231.10 1170.77 203.96 C 1180.84 161.59 1191.07 119.25 1201.20 76.90 C 1205.84 58.13 1209.98 39.25 1214.80 20.53 C 1214.90 18.37 1217.45 18.77 1218.97 18.67 C 1278.36 18.84 1337.76 18.50 1397.15 18.84 L 1397.25 19.88 C 1394.02 30.66 1389.78 41.12 1386.35 51.85 C 1339.00 189.07 1291.61 326.29 1244.33 463.54 C 1237.47 482.91 1231.14 502.49 1223.27 521.49 C 1215.99 538.13 1208.05 554.75 1196.53 568.94 C 1184.52 583.90 1169.73 596.76 1152.84 605.94 C 1136.32 614.78 1117.47 617.87 1098.96 618.96 C 1093.97 619.71 1088.83 618.64 1083.93 620.00 L 1043.08 620.00 C 1039.04 618.89 1034.79 619.54 1030.70 618.75 C 1027.08 619.11 1023.45 619.11 1019.85 618.63 C 1002.79 617.78 985.82 615.73 968.86 613.73 C 968.52 605.16 968.78 596.58 968.70 588.01 C 968.78 554.78 968.55 521.54 968.82 488.32 C 981.21 489.21 993.61 489.92 1006.00 490.69 C 1019.36 490.67 1033.22 491.81 1045.84 486.47 C 1052.31 482.84 1056.93 475.52 1055.59 467.94 C 1053.78 456.44 1048.90 445.72 1045.57 434.62 C 997.78 296.20 950.21 157.70 902.32 19.32 Z"/>
    <path fill="#f48120" opacity="1.00" d=" M 1858.34 38.76 C 1866.14 23.88 1886.55 18.38 1901.25 25.89 C 1907.60 29.06 1913.19 34.23 1916.11 40.77 C 1917.60 43.62 1918.63 46.67 1919.24 49.83 C 1923.06 67.55 1909.05 86.62 1891.02 88.31 C 1875.31 90.95 1858.69 79.91 1854.90 64.45 C 1852.49 55.96 1853.47 46.21 1858.34 38.76 M 1874.16 31.61 C 1869.16 34.72 1864.53 38.87 1862.32 44.45 C 1858.64 51.77 1859.28 60.53 1862.60 67.85 C 1863.94 69.71 1865.13 71.69 1866.48 73.56 C 1871.60 79.41 1879.32 82.44 1887.00 82.74 C 1894.84 82.28 1902.54 78.70 1907.64 72.66 C 1911.92 66.99 1914.34 59.87 1913.67 52.72 C 1912.24 42.14 1904.67 32.38 1894.13 29.66 C 1887.49 27.35 1880.36 28.74 1874.16 31.61 Z"/>
    <path fill="#f48120" opacity="1.00" d=" M 1872.72 37.74 C 1880.90 38.17 1889.59 36.33 1897.39 39.57 C 1902.08 41.29 1903.76 46.91 1902.52 51.42 C 1901.90 54.71 1898.96 56.83 1896.10 58.10 C 1898.60 63.04 1900.88 68.14 1902.70 73.37 C 1899.94 73.01 1896.82 73.97 1894.32 72.71 C 1892.66 68.20 1890.62 63.84 1888.99 59.32 C 1886.23 59.78 1882.46 58.16 1880.37 60.22 C 1880.13 64.56 1880.38 68.91 1880.28 73.26 C 1877.75 73.30 1875.23 73.30 1872.74 73.28 C 1872.67 61.44 1872.70 49.59 1872.72 37.74 M 1880.29 43.81 C 1880.28 46.94 1880.28 50.06 1880.29 53.19 C 1884.80 53.08 1889.53 53.72 1893.79 51.80 C 1895.29 49.25 1894.72 46.46 1892.89 44.28 C 1888.71 43.68 1884.49 43.83 1880.29 43.81 Z"/>
    <path fill="#f48120" opacity="1.00" d=" M 427.84 54.81 C 433.39 49.30 438.85 43.70 444.37 38.16 C 444.22 64.76 444.31 91.36 444.32 117.96 C 428.35 134.43 412.07 150.61 395.89 166.89 C 389.84 172.51 384.73 179.00 378.71 184.65 C 362.29 201.25 345.94 217.93 329.36 234.39 C 328.01 235.70 326.73 237.09 325.55 238.56 C 322.77 240.73 320.36 243.31 318.17 246.07 C 299.07 265.67 279.74 285.06 260.36 304.40 C 259.03 305.74 257.89 307.25 256.64 308.66 C 237.54 327.92 218.58 347.32 199.33 366.44 C 193.08 373.79 185.90 380.28 179.17 387.18 C 167.56 399.62 155.01 411.16 143.45 423.64 C 157.89 423.82 172.33 423.60 186.77 423.75 C 194.72 416.33 201.93 408.19 209.70 400.60 C 220.37 389.99 230.93 379.27 241.58 368.66 C 254.91 354.34 268.82 340.54 282.61 326.65 C 336.02 326.76 389.43 326.70 442.84 326.68 C 442.83 369.81 442.82 412.94 442.85 456.08 C 443.03 457.26 442.65 459.19 441.00 458.82 C 304.07 458.89 167.14 458.75 30.22 458.89 C 33.05 456.16 35.98 453.52 38.44 450.44 C 39.90 449.28 41.32 448.04 42.57 446.64 C 48.07 439.84 54.91 434.29 60.65 427.70 C 74.94 413.30 89.33 399.00 103.59 384.58 C 107.61 379.61 112.42 375.36 116.87 370.79 C 128.97 357.92 141.80 345.76 154.12 333.10 C 158.85 328.19 164.01 323.68 168.33 318.38 C 176.02 310.39 184.17 302.85 191.65 294.65 C 205.50 280.85 219.26 266.95 233.09 253.12 C 238.96 246.01 246.08 240.09 252.15 233.17 C 264.82 220.50 277.45 207.80 290.10 195.12 C 292.66 192.67 295.11 190.12 297.33 187.37 C 316.29 168.31 335.04 149.06 354.11 130.11 C 357.71 126.38 361.64 122.96 364.88 118.89 C 381.65 101.66 398.61 84.61 415.62 67.60 C 419.75 63.40 424.12 59.41 427.84 54.81 Z"/>
  </g>
</svg>
